<svg width="222" height="42" viewBox="0 0 222 42" fill="none" xmlns="http://www.w3.org/2000/svg">
<path d="M221.63 31.7679C220.997 31.7679 220.365 31.7679 219.732 31.7679C219.732 31.4968 219.732 31.2257 219.732 30.9546C219.732 29.3278 219.732 27.7913 219.642 26.1645C219.551 24.9896 218.919 24.357 217.924 24.1762C217.021 23.9955 215.936 24.5377 215.575 25.5319C215.394 25.9838 215.303 26.526 215.303 26.9779C215.303 28.3336 215.303 29.6892 215.303 31.0449C215.303 31.2257 215.303 31.4968 215.303 31.7679C214.671 31.7679 214.129 31.7679 213.496 31.7679C213.496 31.5872 213.496 31.316 213.496 31.1353C213.496 29.5989 213.496 28.0625 213.496 26.4357C213.496 25.3511 212.954 24.5377 212.14 24.2666C210.604 23.8147 209.158 24.8992 209.158 26.4357C209.067 27.9721 209.158 29.4181 209.158 30.9546C209.158 31.2257 209.158 31.4064 209.158 31.7679C208.525 31.7679 207.892 31.7679 207.26 31.7679C207.26 31.5872 207.26 31.316 207.26 31.1353C207.26 28.5143 207.26 25.8934 207.26 23.3628C207.26 22.8205 207.35 22.459 207.983 22.6398C207.983 22.6398 207.983 22.6398 208.073 22.6398C209.067 22.6398 209.067 22.6398 209.248 23.6339C211.327 21.736 214.129 22.459 215.032 24.1762C215.665 23.2724 216.478 22.6398 217.653 22.459C219.822 22.1879 221.359 23.2724 221.72 25.3511C221.72 25.4415 221.811 25.5319 221.811 25.7126C221.63 27.6106 221.63 29.6893 221.63 31.7679Z" fill="#E4EBFF"/>
<path d="M42.5898 31.3166C42.5898 24.6287 42.5898 17.9407 42.5898 11.2527C43.1321 11.2527 43.584 11.2527 44.1263 11.2527C45.3012 11.2527 46.4761 11.2527 47.651 11.2527C48.8259 11.2527 48.6451 11.2527 48.6451 12.2469C48.6451 12.6988 48.6451 13.1507 48.6451 13.8737C50.1816 11.7046 52.0795 10.8009 54.5197 10.9816C56.9599 11.1624 58.9482 12.0661 60.1232 14.3256C60.3943 14.0544 60.5751 13.7833 60.7558 13.6026C62.6537 11.2527 65.0939 10.6201 67.8957 11.072C70.7877 11.6143 72.5953 13.3314 73.3183 16.1331C73.5895 17.2177 73.7702 18.3022 73.7702 19.3867C73.8606 23.1826 73.7702 26.9785 73.7702 30.8648C73.7702 31.0455 73.7702 31.1359 73.7702 31.3166C71.7819 31.3166 69.884 31.3166 67.8053 31.3166C67.8053 31.0455 67.8053 30.7744 67.8053 30.5032C67.8053 27.2496 67.8053 24.0864 67.8053 20.8328C67.8053 20.2002 67.7149 19.4771 67.5342 18.9349C67.0823 17.4888 65.9073 16.8562 64.3709 16.8562C62.9249 16.8562 61.9307 17.6696 61.4788 19.1156C61.2981 19.7483 61.2077 20.4713 61.2077 21.1943C61.2077 24.3575 61.2077 27.5208 61.2077 30.684C61.2077 31.2263 61.1173 31.407 60.4847 31.407C58.7675 31.407 56.9599 31.407 55.062 31.407C55.062 31.1359 55.062 30.8647 55.062 30.684C55.062 27.34 55.062 24.0864 55.062 20.7424C55.062 20.1098 54.9716 19.4771 54.7005 18.8445C54.1582 17.3984 52.9833 16.6754 51.2661 16.8562C49.9105 16.9466 48.8259 17.9407 48.5548 19.3867C48.4644 19.929 48.374 20.4713 48.374 21.0136C48.374 24.2672 48.374 27.4304 48.374 30.684C48.374 31.2263 48.1933 31.407 47.651 31.407C46.205 31.2263 44.3974 31.3166 42.5898 31.3166Z" fill="#E4EBFF"/>
<path d="M139.655 31.2261C137.576 31.2261 135.678 31.2261 133.69 31.2261C133.69 30.5031 133.69 29.8704 133.69 28.9666C132.606 30.4127 131.34 31.1357 129.804 31.4972C125.827 32.2202 122.664 31.0453 120.224 27.8821C117.241 23.9959 117.512 17.7598 120.766 14.0543C123.477 10.9814 128.087 9.89691 131.521 11.7045C132.334 12.066 132.967 12.789 133.69 13.2409C133.69 9.08352 133.69 4.74537 133.69 0.407227C134.142 0.407227 134.504 0.407227 134.865 0.407227C136.221 0.407227 137.667 0.407227 139.022 0.407227C139.565 0.407227 139.745 0.587999 139.745 1.13027C139.745 5.46841 139.745 9.80654 139.745 14.1447C139.745 19.5674 139.745 24.8996 139.745 30.3223C139.655 30.5935 139.655 30.8646 139.655 31.2261ZM124.381 21.1941C124.381 23.9959 126.279 25.8938 128.9 25.8938C131.521 25.8938 133.509 23.8151 133.509 21.1038C133.509 18.4828 131.521 16.4041 128.9 16.4041C126.37 16.4945 124.381 18.5732 124.381 21.1941Z" fill="#E4EBFF"/>
<path d="M157.191 13.2413C157.191 12.5183 157.191 11.976 157.191 11.2529C157.462 11.2529 157.643 11.1626 157.823 11.1626C159.36 11.1626 160.987 11.1626 162.523 11.1626C163.065 11.1626 163.156 11.3433 163.156 11.7952C163.156 18.0313 163.156 24.2674 163.156 30.5035C163.156 31.0457 162.975 31.2265 162.433 31.2265C160.896 31.2265 159.36 31.2265 157.733 31.2265C157.552 31.2265 157.371 31.2265 157.1 31.2265C157.1 30.5938 157.1 30.0516 157.1 29.4189C157.01 29.4189 156.92 29.4189 156.92 29.4189C153.847 32.2206 150.322 32.311 146.797 30.5938C142.911 28.6959 140.742 24.6289 141.194 20.2907C141.736 15.4103 144.719 11.976 149.509 10.9818C152.401 10.4396 154.931 11.0722 157.191 13.2413ZM152.401 16.5852C149.689 16.5852 147.43 18.6639 147.43 21.1945C147.43 23.7251 149.689 25.8942 152.31 25.8942C155.022 25.8942 157.1 23.9059 157.1 21.1945C157.191 18.5736 155.112 16.5852 152.401 16.5852Z" fill="#E4EBFF"/>
<path d="M96.0043 21.1941C96.185 27.0687 91.5757 31.5876 85.6108 31.5876C79.6459 31.5876 75.2173 27.159 75.127 21.1941C75.127 15.2292 79.5555 10.7103 85.7012 10.8006C91.8468 10.891 96.185 15.5003 96.0043 21.1941ZM85.6108 25.713C88.1414 25.713 90.0393 23.8151 90.0393 21.3749C90.0393 18.7539 88.2318 16.7656 85.6108 16.7656C83.0802 16.7656 81.1823 18.6635 81.1823 21.1941C81.2726 23.8151 83.0802 25.713 85.6108 25.713Z" fill="#E4EBFF"/>
<path d="M166.679 41.0772C167.402 39.36 167.944 37.8236 168.577 36.2872C169.481 34.1181 170.294 31.949 171.198 29.78C171.379 29.3281 171.379 29.057 171.198 28.6051C168.758 23.0016 166.408 17.4886 163.968 11.8851C163.877 11.7044 163.787 11.5236 163.787 11.2525C163.968 11.2525 164.058 11.1621 164.149 11.1621C165.956 11.1621 167.854 11.1621 169.662 11.1621C170.114 11.1621 170.204 11.4332 170.294 11.7044C171.56 15.0484 172.825 18.302 174.181 21.646C174.271 21.8267 174.361 22.0075 174.452 22.369C175.084 20.8326 175.627 19.3865 176.169 17.9405C176.982 15.8618 177.796 13.7831 178.609 11.7044C178.699 11.5236 178.971 11.2525 179.151 11.2525C181.049 11.2525 182.947 11.2525 184.845 11.2525C184.936 11.2525 185.026 11.2525 185.207 11.3429C185.026 11.7044 184.936 12.0659 184.755 12.4274C180.869 21.7363 177.073 31.0453 173.186 40.3542C172.915 40.8965 172.644 41.0772 172.102 41.0772C170.475 40.9868 168.939 41.0772 167.312 41.0772C167.312 41.0772 167.041 41.0772 166.679 41.0772Z" fill="#E4EBFF"/>
<path d="M116.7 31.2261C114.711 31.2261 112.723 31.2261 110.735 31.2261C110.735 30.955 110.735 30.6839 110.735 30.4128C110.735 27.3399 110.735 24.1767 110.735 21.1038C110.735 20.4712 110.644 19.7482 110.554 19.1155C110.102 17.3983 108.746 16.6753 106.758 16.7657C105.222 16.8561 104.047 17.9406 103.866 19.5674C103.775 20.1097 103.775 20.6519 103.775 21.1942C103.775 24.267 103.775 27.4303 103.775 30.5031C103.775 30.7743 103.775 30.955 103.775 31.3165C101.787 31.3165 99.7989 31.3165 97.8105 31.3165C97.8105 31.0454 97.8105 30.8646 97.8105 30.5935C97.8105 24.4478 97.8105 18.2117 97.8105 12.066C97.8105 11.5238 97.9913 11.2526 98.5336 11.2526C100.07 11.2526 101.606 11.2526 103.143 11.2526C103.324 11.2526 103.504 11.2526 103.775 11.2526C103.775 12.066 103.775 12.8794 103.775 13.8736C103.956 13.6928 104.047 13.6928 104.047 13.6025C106.035 11.0719 108.566 10.3489 111.638 11.0719C114.44 11.7045 115.976 13.6928 116.609 16.4042C116.79 17.1272 116.88 17.8502 116.88 18.5732C116.88 22.5499 116.88 26.5265 116.88 30.5935C116.7 30.7742 116.7 30.955 116.7 31.2261Z" fill="#E4EBFF"/>
<path d="M4.54123 31.3164C3.0048 31.226 1.73951 30.5934 0.926113 29.1473C0.112712 27.7013 0.203096 26.1648 1.0165 24.8092C3.4567 20.8325 5.98727 16.8559 8.51785 12.8793C8.69861 12.6985 8.78899 12.4274 8.96974 12.2466C10.4158 10.7102 12.856 10.4391 14.5732 11.7044C16.2904 12.9697 16.8326 15.4099 15.6577 17.2174C13.1271 21.2844 10.5965 25.3514 8.06596 29.4185C7.25256 30.6837 6.07765 31.226 4.54123 31.3164Z" fill="#E4EBFF"/>
<path d="M25.0574 10.9814C28.311 10.9814 30.2994 14.4158 28.6726 17.2175C26.2324 21.2845 23.6114 25.3515 21.0808 29.3281C19.8155 31.3165 17.2849 31.8587 15.2966 30.5934C13.3987 29.3281 12.766 26.888 14.0313 24.8996C16.4715 20.923 19.0021 16.9464 21.5327 12.8794C22.3461 11.6141 23.521 10.9814 25.0574 10.9814Z" fill="#E4EBFF"/>
<path d="M30.4797 23.0923C32.8295 23.0923 34.637 24.8998 34.637 27.1593C34.637 29.4187 32.8295 31.2263 30.4797 31.2263C28.1298 31.2263 26.3223 29.4187 26.3223 27.1593C26.3223 24.8998 28.1298 23.0923 30.4797 23.0923Z" fill="#E4EBFF"/>
<path d="M195.691 27.0688C195.691 24.2671 197.77 22.2788 200.572 22.2788C203.374 22.2788 205.452 24.3575 205.452 27.0688C205.452 29.8705 203.374 31.9492 200.572 31.9492C197.68 32.0396 195.691 29.9609 195.691 27.0688ZM200.481 30.1417C202.199 30.1417 203.464 28.8764 203.464 27.1592C203.464 25.442 202.199 24.1768 200.481 24.1768C198.764 24.1768 197.499 25.442 197.499 27.0688C197.589 28.8764 198.764 30.1417 200.481 30.1417Z" fill="#E4EBFF"/>
<path d="M194.97 23.9052C194.608 24.2667 194.247 24.6283 193.795 24.8994C193.704 24.9898 193.343 24.8994 193.162 24.809C191.354 23.6341 188.914 24.4475 188.462 26.4358C188.191 27.6107 188.643 28.876 189.637 29.6894C190.631 30.4124 192.077 30.4124 193.072 29.7798C193.252 29.6894 193.433 29.5087 193.614 29.4183C194.066 29.7798 194.518 30.1413 194.97 30.5028C194.156 31.7681 191.897 32.4911 190.089 31.9489C188.101 31.4066 186.564 29.6894 186.474 27.7011C186.384 25.3513 187.468 23.5437 189.547 22.7303C191.445 21.9169 193.885 22.4592 194.97 23.9052Z" fill="#E4EBFF"/>
<path d="M183.668 30.2321C183.668 30.9552 183.126 31.4974 182.313 31.4974C181.59 31.4974 180.957 30.9552 180.957 30.2321C180.957 29.5091 181.499 28.8765 182.222 28.8765C183.036 28.8765 183.668 29.5091 183.668 30.2321Z" fill="#E4EBFF"/>
</svg>
