<svg width="178" height="36" viewBox="0 0 178 36" fill="none" xmlns="http://www.w3.org/2000/svg">
<path d="M66.7047 28.1985C60.5489 33.2442 53.283 30.8222 49.8519 26.9875C45.9162 22.5472 45.7144 15.685 49.4483 11.0429C51.5675 8.41916 54.3931 6.90544 57.7233 6.60269C60.9525 6.29995 63.98 7.10726 66.6038 9.52922C66.7047 9.02464 66.7047 8.72189 66.7047 8.41915C66.8056 7.71274 67.1084 7.51092 67.8148 7.51092C67.9157 7.51092 67.9157 7.51092 68.0166 7.51092C71.9523 7.51092 71.3468 7.30909 71.3468 10.5384C71.3468 16.4923 71.3468 22.5472 71.3468 28.5012C71.3468 29.2076 71.7504 30.1158 70.8422 30.5195C69.8331 30.9232 68.8239 30.7213 68.0166 29.914C67.7138 29.6113 67.512 29.3085 67.2093 28.9048C67.0074 28.703 66.9065 28.4003 66.7047 28.1985ZM66.7047 19.1161C66.7047 14.7768 63.2736 11.1439 59.1361 11.0429C54.8977 10.942 51.3656 14.6759 51.3656 19.0152C51.3656 23.4555 54.8977 27.0884 59.1361 27.0884C63.2736 27.0884 66.7047 23.4555 66.7047 19.1161Z" fill="#E4EBFF"/>
<path d="M116.961 28.1985C110.805 33.2442 103.539 30.8222 100.108 26.9875C96.1721 22.5472 95.9703 15.685 99.7041 11.0429C101.823 8.41916 104.649 6.90544 107.979 6.60269C111.208 6.29995 114.236 7.10726 116.86 9.52922C116.961 9.02464 116.961 8.72189 116.961 8.41915C117.061 7.71274 117.364 7.51092 118.071 7.51092C118.172 7.51092 118.172 7.51092 118.272 7.51092C122.208 7.51092 121.603 7.30909 121.603 10.5384C121.603 16.4923 121.603 22.5472 121.603 28.5012C121.603 29.2076 122.006 30.1158 121.098 30.5195C120.089 30.9232 119.08 30.7213 118.272 29.914C117.97 29.6113 117.768 29.3085 117.465 28.9048C117.162 28.6021 117.061 28.4003 116.961 28.1985ZM116.961 19.1161C116.961 14.6759 113.429 11.0429 109.291 11.0429C105.154 11.0429 101.621 14.6759 101.621 19.0152C101.621 23.4555 105.154 27.0884 109.291 27.0884C113.429 27.0884 116.961 23.4555 116.961 19.1161Z" fill="#E4EBFF"/>
<path d="M172.967 9.32741C173.169 7.41003 173.169 7.41004 174.884 7.41004C177.912 7.41004 177.609 7.30913 177.609 10.0338C177.609 16.1896 177.609 22.3454 177.609 28.5012C177.609 29.1067 177.912 30.015 177.105 30.3177C176.196 30.7214 175.187 30.5195 174.38 29.914C173.875 29.4095 173.472 28.804 172.967 28.0976C170.444 30.4186 167.316 31.2259 163.986 30.9232C160.756 30.5195 158.133 29.1067 156.013 26.5839C152.179 22.0427 152.279 15.0796 156.215 10.6393C160.554 5.6945 166.811 5.1899 172.967 9.32741ZM172.967 19.1162C172.967 14.7768 169.536 11.1439 165.297 11.1439C161.059 11.1439 157.527 14.7768 157.527 19.2171C157.527 23.5564 160.958 27.1894 165.197 27.1894C169.435 27.1894 172.967 23.4555 172.967 19.1162Z" fill="#E4EBFF"/>
<path d="M132.5 9.4288C133.812 8.1169 135.225 7.20866 136.94 6.70408C142.389 5.39219 147.738 8.7224 148.949 14.1718C149.151 15.08 149.252 15.9883 149.252 16.8965C149.252 20.8322 149.252 24.7679 149.252 28.6026C149.252 30.2173 149.151 30.3182 147.536 30.3182C144.61 30.3182 144.71 30.6209 144.71 27.5935C144.71 23.9605 144.71 20.4285 144.71 16.7956C144.71 13.869 142.793 11.548 139.968 10.9425C136.234 10.1352 132.702 12.759 132.601 16.5938C132.5 20.2267 132.601 23.8596 132.601 27.4925C132.601 30.6209 132.601 30.3182 129.775 30.3182C128.06 30.3182 127.959 30.2172 127.959 28.5017C127.959 22.1441 127.959 15.8874 127.959 9.52972C127.959 8.82331 127.555 7.81416 128.564 7.4105C129.573 7.00684 131.188 7.5114 131.793 8.21781C132.096 8.62146 132.197 8.92422 132.5 9.4288Z" fill="#E4EBFF"/>
<path d="M84.8676 31.3272C81.941 31.0245 79.3173 30.3181 76.8953 28.8043C75.5834 27.997 75.4825 27.6943 76.3907 26.5842C78.0054 24.2632 77.7026 24.0613 80.2255 25.4741C82.1429 26.4833 84.2621 26.9878 86.4822 26.4833C86.785 26.3824 87.0877 26.2815 87.3904 26.1805C88.5005 25.7769 89.2069 24.9696 89.2069 23.7586C89.2069 22.6485 88.2987 22.043 87.3904 21.7403C85.9776 21.2357 84.5648 20.832 83.0511 20.4284C81.4365 20.0247 80.0237 19.4192 78.7118 18.4101C75.4825 15.9881 75.3816 11.1442 78.5099 8.62136C80.9319 6.60307 83.7575 6.19941 86.684 6.60307C88.5005 6.80489 90.2161 7.41037 91.8307 8.41952C92.7389 9.02501 92.7389 9.22685 92.2344 10.1351C91.9316 10.6397 91.528 11.2451 91.1243 11.7497C90.4179 12.6579 90.317 12.658 89.2069 12.1534C87.3904 11.1442 85.574 10.6397 83.4548 11.1442C82.9502 11.2451 82.5465 11.447 82.1429 11.6488C80.5282 12.658 80.5282 14.4744 82.2438 15.2817C83.3539 15.7863 84.5648 16.089 85.6749 16.4927C87.3904 17.0982 89.3078 17.6028 90.9225 18.6119C94.4545 20.7311 94.9591 25.3732 92.1334 28.2998C91.3261 29.1071 90.317 29.8135 89.2069 30.2171C87.7941 30.7217 86.2804 30.9235 84.8676 31.3272Z" fill="#E4EBFF"/>
<path d="M8.87984 35.5658C4.33867 35.5658 0.503906 31.8319 0.503906 27.1899C0.503906 22.7496 4.23776 18.9148 8.77892 18.8139C13.3201 18.713 17.2558 22.6487 17.2558 27.1899C17.1549 31.6301 13.3201 35.4649 8.87984 35.5658Z" fill="#E4EBFF"/>
<path d="M39.0533 27.1894C39.0533 31.7306 35.2185 35.5653 30.6774 35.5653C26.2371 35.5653 22.4023 31.7306 22.4023 27.1894C22.4023 22.7492 26.1362 18.9144 30.6774 18.8135C35.2185 18.8135 39.0533 22.6483 39.0533 27.1894Z" fill="#E4EBFF"/>
<path d="M19.7802 0.144531C24.3213 0.144531 28.0552 3.97931 28.0552 8.52048C28.0552 13.0616 24.3213 16.8964 19.7802 16.8964C15.239 16.8964 11.3033 13.0616 11.4042 8.52048C11.5052 3.8784 15.3399 0.144531 19.7802 0.144531Z" fill="#E4EBFF"/>
</svg>
