<svg width="178" height="40" viewBox="0 0 178 40" fill="none" xmlns="http://www.w3.org/2000/svg">
<path d="M84.0033 8.38672C82.522 8.38672 81.3164 9.59236 81.3164 11.0736C81.3164 12.5548 82.522 13.7605 84.0033 13.7605C85.4845 13.7605 86.6901 12.5548 86.6901 11.0736C86.6901 9.59236 85.4845 8.38672 84.0033 8.38672Z" fill="#E4EBFF"/>
<path d="M85.8279 16.895H82.2109C82.0043 16.895 81.832 17.0672 81.832 17.2739V33.0162C81.832 33.2229 82.0043 33.3951 82.2109 33.3951H85.8279C86.0345 33.3951 86.2068 33.2229 86.2068 33.0162V17.2739C86.2068 17.0672 86.0345 16.895 85.8279 16.895Z" fill="#E4EBFF"/>
<path d="M70.5015 8.62785C70.4326 8.49006 70.2948 8.38672 70.1225 8.38672H66.0922C65.92 8.38672 65.7822 8.49006 65.7133 8.62785L55.9993 32.8785C55.9649 32.9129 55.9648 32.9818 55.9648 33.0163C55.9648 33.223 56.1371 33.3952 56.3438 33.3952H60.5807C60.753 33.3952 60.8908 33.2919 60.9596 33.1541L62.8887 27.987C62.9576 27.8492 63.0954 27.7459 63.2676 27.7459H73.0161C73.1883 27.7459 73.3261 27.8492 73.395 27.987L75.324 33.1541C75.3929 33.2919 75.5307 33.3952 75.7029 33.3952H79.9399C79.9744 33.3952 80.0432 33.3952 80.0777 33.3607C80.2844 33.2919 80.3877 33.0507 80.2844 32.844L70.5015 8.62785ZM71.1904 23.5778H65.0244C64.9899 23.5778 64.9211 23.5778 64.8866 23.5434C64.6799 23.4745 64.5766 23.2333 64.6455 23.0267L67.7457 14.725C67.8835 14.3805 68.3657 14.3805 68.4691 14.725L71.5693 23.0267C71.5693 23.0611 71.6038 23.13 71.6038 23.1645C71.6038 23.4056 71.3971 23.5778 71.1904 23.5778Z" fill="#E4EBFF"/>
<path d="M95.7841 17.4113C94.854 18.1003 94.1651 19.0992 93.7517 20.3738H93.6828V17.2735C93.6828 17.0669 93.5106 16.8946 93.3039 16.8946H89.7559C89.5492 16.8946 89.377 17.0669 89.377 17.2735V33.0158C89.377 33.2225 89.5492 33.3947 89.7559 33.3947H93.3384C93.545 33.3947 93.7173 33.2225 93.7173 33.0158V26.6431C93.7173 24.6796 94.1306 23.2329 94.9574 22.4061C95.7841 21.545 97.0931 21.1316 98.8843 21.1316H98.9877C99.1943 21.1316 99.3666 20.9594 99.3666 20.7527V16.3779H99.1943C97.8509 16.3779 96.7142 16.7224 95.7841 17.4113Z" fill="#E4EBFF"/>
<path d="M148.213 17.3774C147.007 16.6884 145.664 16.344 144.217 16.344C142.942 16.344 141.84 16.5851 140.91 17.1018C139.98 17.6185 139.257 18.3074 138.705 19.2031H138.636V8.76565C138.636 8.55897 138.464 8.38672 138.258 8.38672H134.641C134.434 8.38672 134.262 8.55897 134.262 8.76565V33.0163C134.262 33.223 134.434 33.3952 134.641 33.3952H138.258C138.464 33.3952 138.636 33.223 138.636 33.0163V31.0873H138.705C139.257 31.9829 139.98 32.7063 140.91 33.1885C141.84 33.7052 142.942 33.9463 144.217 33.9463C145.664 33.9463 147.007 33.6019 148.213 32.9129C149.418 32.224 150.383 31.225 151.106 29.8816C151.795 28.5726 152.174 26.9881 152.174 25.1279C152.174 23.3023 151.83 21.7177 151.106 20.3742C150.383 19.0653 149.418 18.0663 148.213 17.3774ZM146.318 28.5037C145.491 29.3649 144.424 29.7783 143.08 29.7783C141.737 29.7783 140.669 29.3649 139.842 28.5037C139.015 27.6426 138.602 26.5403 138.602 25.1279C138.602 23.7501 139.015 22.6133 139.842 21.7521C140.669 20.891 141.737 20.4776 143.08 20.4776C144.424 20.4776 145.491 20.891 146.318 21.7521C147.145 22.6133 147.558 23.7156 147.558 25.1279C147.558 26.5058 147.145 27.6426 146.318 28.5037Z" fill="#E4EBFF"/>
<path d="M175.563 18.6512C174.151 17.1011 172.188 16.3433 169.673 16.3433C167.951 16.3433 166.469 16.7222 165.16 17.4455C163.886 18.1689 162.887 19.2368 162.164 20.5458C161.44 21.8892 161.096 23.4049 161.096 25.1617C161.096 26.9185 161.475 28.4341 162.198 29.7431C162.921 31.0521 163.989 32.0855 165.298 32.8089C166.642 33.5323 168.192 33.9112 169.983 33.9112C171.533 33.9112 172.877 33.6356 174.013 33.0845C175.047 32.5678 176.011 31.9477 176.872 31.1899C177.01 31.0521 177.045 30.8454 176.941 30.6732L175.185 28.1586C175.047 27.9519 174.771 27.9174 174.599 28.0897C173.187 29.3986 171.636 30.0187 169.983 30.0187C168.708 30.0187 167.641 29.6742 166.779 28.9508C166.022 28.3308 165.574 27.5041 165.402 26.4706C165.402 26.4362 165.402 26.4362 165.402 26.4017C165.402 26.1951 165.574 26.0228 165.78 26.0228H177.286C177.492 26.0228 177.665 25.8506 177.665 25.6439V25.1617C177.665 22.3715 176.976 20.2013 175.563 18.6512ZM172.808 23.1982H165.918C165.677 23.1982 165.47 22.9571 165.539 22.7159C165.746 21.8203 166.159 21.1658 166.745 20.6836C167.434 20.1324 168.364 19.8568 169.432 19.8568C170.534 19.8568 171.43 20.1324 172.084 20.718C172.67 21.2003 173.014 21.8892 173.152 22.7159C173.221 22.9915 173.049 23.1982 172.808 23.1982Z" fill="#E4EBFF"/>
<path d="M158.203 8.38672H154.586C154.379 8.38672 154.207 8.55897 154.207 8.76565V33.0163C154.207 33.223 154.379 33.3952 154.586 33.3952H158.203C158.41 33.3952 158.582 33.223 158.582 33.0163V8.76565C158.616 8.55897 158.444 8.38672 158.203 8.38672Z" fill="#E4EBFF"/>
<path d="M111.905 16.8948H109.287C109.08 16.8948 108.908 16.7226 108.908 16.5159V10.6943C108.908 10.4877 108.736 10.3154 108.529 10.3154H104.912C104.706 10.3154 104.533 10.4877 104.533 10.6943V16.5159C104.533 16.7226 104.361 16.8948 104.154 16.8948H101.881C101.674 16.8948 101.502 17.067 101.502 17.2737V20.1672C101.502 20.3739 101.674 20.5462 101.881 20.5462H104.154C104.361 20.5462 104.533 20.7184 104.533 20.9251V28.5034C104.533 30.1224 104.947 31.3625 105.808 32.1548C106.669 32.9815 107.909 33.3949 109.494 33.3949H111.044C111.25 33.3949 111.423 33.2226 111.423 33.0159V29.709C111.423 29.5024 111.25 29.3301 111.044 29.3301H110.699C110.045 29.3301 109.597 29.1923 109.356 28.9168C109.08 28.6412 108.977 28.1589 108.977 27.47V20.9251C108.977 20.7184 109.149 20.5462 109.356 20.5462H111.974C112.181 20.5462 112.353 20.3739 112.353 20.1672V17.2737C112.284 17.067 112.112 16.8948 111.905 16.8948Z" fill="#E4EBFF"/>
<path d="M131.058 16.8944H127.475C127.268 16.8944 127.096 17.0666 127.096 17.2733V19.2024H127.027C126.476 18.3067 125.753 17.5833 124.823 17.1011C123.893 16.5844 122.79 16.3433 121.516 16.3433C120.069 16.3433 118.726 16.6877 117.52 17.3767C116.314 18.0656 115.35 19.0646 114.626 20.408C113.938 21.717 113.559 23.3015 113.559 25.1617C113.559 26.9874 113.903 28.5719 114.626 29.9153C115.315 31.2243 116.28 32.2577 117.52 32.9467C118.726 33.6356 120.069 33.9801 121.516 33.9801C122.79 33.9801 123.893 33.739 124.823 33.2223C125.753 32.7056 126.476 32.0166 127.027 31.121H127.096V33.05C127.096 33.2567 127.268 33.4289 127.475 33.4289H131.058C131.264 33.4289 131.437 33.2567 131.437 33.05V17.3078C131.437 17.0666 131.264 16.8944 131.058 16.8944ZM125.822 28.503C124.995 29.3642 123.927 29.7776 122.584 29.7776C121.24 29.7776 120.172 29.3642 119.346 28.503C118.519 27.6419 118.106 26.5396 118.106 25.1272C118.106 23.7494 118.519 22.6126 119.346 21.7514C120.172 20.8902 121.24 20.4769 122.584 20.4769C123.927 20.4769 124.995 20.8902 125.822 21.7514C126.648 22.6126 127.062 23.7149 127.062 25.1272C127.062 26.5051 126.648 27.6419 125.822 28.503Z" fill="#E4EBFF"/>
<path d="M43.1148 10.5566C44.0793 10.1777 44.0793 8.8343 43.1148 8.42093L25.9258 1.32485C24.3412 0.670361 22.5844 0.670361 21.0343 1.32485L3.84529 8.42093C2.88078 8.79985 2.91523 10.1777 3.84529 10.5566L21.1032 17.4116C22.6189 17.9972 24.3068 17.9972 25.8224 17.4116L43.1148 10.5566Z" fill="#E4EBFF"/>
<path d="M44.9741 12.6231L25.7527 20.0981C25.3049 20.2703 25.0293 20.6837 25.0293 21.166V38.2516C25.0293 39.0784 25.856 39.6295 26.6138 39.3195L45.8353 31.8445C46.2831 31.6723 46.5586 31.2589 46.5586 30.7767V13.691C46.5586 12.8643 45.7319 12.3131 44.9741 12.6231Z" fill="#E4EBFF"/>
<path d="M20.4487 19.9258L2.19181 12.692C1.84735 12.5542 1.43398 12.5886 1.15841 12.7609C1.05507 12.8297 0.951718 12.8986 0.882825 12.9675C0.676143 13.1742 0.503906 13.4153 0.503906 13.7254V29.8121C0.503906 30.6733 1.46842 31.2244 2.22625 30.8455L14.2827 25.0584L14.8683 24.7828L20.5865 22.0271C21.4476 21.5793 21.3788 20.3047 20.4487 19.9258Z" fill="#E4EBFF"/>
</svg>
