<svg width="222" height="48" viewBox="0 0 222 48" fill="none" xmlns="http://www.w3.org/2000/svg">
<path d="M0.830476 5.1192C1.14456 4.96216 1.6157 4.80513 1.92978 4.80513C10.724 3.23473 19.6753 1.82138 28.4695 0.250977C28.7836 1.5073 28.6266 2.60656 28.6266 3.86288C28.6266 4.96216 28.6266 6.06146 28.6266 7.31778C30.6681 6.53258 32.5525 6.53255 34.28 7.63183C36.0074 8.73111 36.7927 10.4586 37.1067 12.343C39.6194 9.51631 42.289 8.73112 44.8017 10.1445C47.1573 11.4008 48.4136 14.0705 47.7854 16.5831C47.1573 18.9387 44.9587 21.1373 41.6609 20.8232C39.3053 20.5092 36.9497 19.0958 36.4786 15.1698C34.5941 17.9965 32.0814 18.9388 28.7836 17.6824C28.3125 18.4676 28.6266 19.2528 28.4695 20.038C28.9407 20.038 29.2547 20.195 29.5688 20.195C31.6103 20.195 33.6519 20.195 35.6934 20.195C36.0075 20.195 36.4786 20.195 36.7926 20.195C37.5778 20.3521 38.049 20.8232 38.049 21.7654C38.049 22.0795 38.049 22.3936 38.049 22.8647C38.5201 22.8647 38.8342 23.0218 39.1482 23.0218C41.3468 23.0218 43.5454 23.0218 45.7439 23.0218C46.058 23.0218 46.5291 23.0218 46.8432 23.1788C47.4714 23.4929 47.7854 23.964 47.7854 24.7492C47.7854 27.1048 47.9425 29.4604 47.7854 31.816C47.6284 34.0146 46.2151 35.4279 44.1735 36.3702C43.0743 36.8413 42.132 36.9983 40.8757 36.9983C39.9334 36.9983 38.8342 36.9983 37.8919 36.9983C37.7349 37.1554 37.5778 37.3124 37.5778 37.4694C36.6356 39.3539 35.0652 40.1391 33.0237 40.6102C31.6103 40.9243 30.0399 41.0814 28.4695 40.6102C28.1555 41.8666 28.3125 43.1229 28.3125 44.2222C28.3125 45.3215 28.3125 46.5778 28.1554 47.8341C18.733 46.2637 9.62474 44.6933 0.359375 42.9658C0.673455 41.5525 0.673436 6.53256 0.830476 5.1192ZM28.7836 21.7654C28.7836 27.4189 28.7836 32.9153 28.7836 38.4117C30.9821 39.0398 32.0814 39.0398 33.8089 38.4117C35.6934 37.7835 36.7926 36.2131 36.6356 34.4857C36.4785 30.7167 36.6356 26.9478 36.6356 23.1788C36.6356 22.7077 36.6356 22.3936 36.6356 21.9225C34.1229 21.7654 31.4533 21.7654 28.7836 21.7654ZM21.2457 14.8557C20.7746 14.8557 20.4605 14.8557 19.9894 14.8557C19.0471 14.8557 17.9478 15.0127 17.0056 15.0127C15.1211 15.1698 13.2367 15.1698 11.3522 15.3268C10.4099 15.3268 9.62472 15.4838 8.68248 15.6409C8.68248 16.5831 8.68248 17.3683 8.68248 18.1535C10.2529 18.4676 11.8233 17.9965 13.3937 18.4676C13.3937 22.8648 13.3937 27.2618 13.3937 31.973C14.493 31.973 15.2782 32.4442 16.3774 31.973C16.3774 29.6174 16.3774 27.4189 16.3774 25.0633C16.3774 22.7077 16.2204 20.5091 16.5345 18.1535C18.1049 17.6824 19.8323 18.3106 21.2457 17.5254C21.2457 16.7402 21.2457 15.955 21.2457 14.8557ZM38.6771 24.5922C38.3631 26.4767 38.5201 34.0146 38.8342 35.1138C39.9335 35.1138 40.8757 35.2709 41.975 35.1138C42.7602 34.9568 43.5454 34.7998 44.3306 34.4857C45.7439 33.8575 46.5291 32.6012 46.5291 31.0308C46.5291 29.3034 46.5291 27.5759 46.5291 25.8485C46.5291 25.5344 46.5291 25.2203 46.3721 24.9062C43.7024 24.5922 41.1898 24.5922 38.6771 24.5922ZM42.4461 18.9387C44.6446 18.9387 46.5291 17.2113 46.5291 15.0127C46.5291 12.9712 44.8017 10.9297 42.6031 11.0867C40.4046 11.0867 38.5201 12.8142 38.5201 15.0127C38.5201 17.0543 40.2475 18.9387 42.4461 18.9387ZM28.7836 15.1698C30.354 16.4261 31.9244 16.5831 33.4948 15.6409C35.0652 14.8557 35.5363 13.4423 35.3793 11.8719C35.2222 10.4586 34.4371 9.35929 33.1807 8.73113C31.7674 8.10297 30.5111 8.26003 29.2547 9.04523C28.9407 9.20227 28.7836 9.67335 28.7836 9.98743C28.7836 11.7149 28.7836 13.4423 28.7836 15.1698Z" fill="#E4EBFF"/>
<path d="M79.0368 18.9385C77.1523 23.1786 75.2678 27.5757 73.2263 31.9728C72.9122 31.9728 72.5981 31.9728 72.127 31.9728C70.0855 27.5757 68.201 23.1786 66.1595 18.6244C66.1595 21.137 66.1595 23.1786 66.1595 25.3771C66.1595 27.5757 66.1595 29.7742 66.1595 31.9728C65.5314 31.9728 64.9032 31.9728 64.4321 31.9728C64.118 31.0306 64.118 17.9962 64.275 15.6406C65.0602 15.3266 65.8454 15.4836 66.7877 15.4836C67.7299 17.6822 68.6721 19.8807 69.6144 22.0793C70.5566 24.2779 71.4989 26.4764 72.5982 28.832C74.6397 24.4349 76.5242 20.0378 78.5657 15.6406C79.3509 15.6406 80.1361 15.6406 80.9213 15.6406C80.9213 15.9547 81.0783 16.2688 81.0783 16.5829C81.0783 21.4511 81.0783 26.3194 81.0783 31.3446C81.0783 31.6587 81.0783 31.8158 80.9213 32.2869C80.2931 32.2869 79.822 32.2869 79.1938 32.2869C78.8797 31.1876 79.0368 30.0883 79.0368 28.989C79.0368 27.8898 79.0368 26.7905 79.0368 25.8482C79.0368 24.749 79.0368 23.6497 79.0368 22.5504C79.1938 20.98 79.1938 20.0378 79.0368 18.9385C79.1938 18.9385 79.1938 18.9385 79.0368 18.9385Z" fill="#E4EBFF"/>
<path d="M197.129 31.8164C196.344 31.8164 195.716 31.8164 195.087 31.8164C194.93 30.5601 195.087 29.3037 195.087 28.0474C195.087 26.634 195.087 25.3778 195.087 23.9644C195.087 22.7081 195.087 21.4518 195.087 20.0384C195.716 20.0384 196.344 20.0384 196.972 20.0384C197.129 20.5095 197.286 20.8236 197.443 21.1377C200.27 18.9391 202.468 19.0961 204.196 21.7658C204.51 21.4517 204.667 21.1376 204.981 20.9806C206.394 19.5672 208.593 19.2532 210.163 20.1954C211.262 20.8236 211.891 21.9229 211.891 23.0222C212.048 25.8489 211.891 28.6756 211.891 31.6594C211.891 31.6594 211.891 31.6594 211.734 31.8164C211.262 31.8164 210.791 31.8164 210.163 31.8164C210.163 31.5023 210.006 31.0312 210.006 30.7171C210.006 28.6756 210.006 26.6341 210.006 24.5926C210.006 24.1214 210.006 23.6503 209.849 23.1792C209.692 22.237 209.064 21.4517 207.965 21.2947C206.865 21.1377 205.923 21.4518 205.295 22.394C204.667 23.4933 204.51 24.5925 204.51 25.8489C204.51 27.4193 204.51 28.8326 204.51 30.403C204.51 30.7171 204.51 31.1882 204.51 31.6594C203.882 31.6594 203.41 31.6594 202.782 31.6594C202.782 31.3453 202.625 31.0312 202.625 30.7171C202.625 28.8326 202.625 26.9481 202.625 25.0637C202.625 24.5925 202.625 24.2785 202.625 23.8074C202.468 22.394 201.683 21.6088 200.427 21.2947C199.327 21.1377 198.071 21.9229 197.6 23.1792C197.443 23.6503 197.286 24.2785 197.286 24.7496C197.286 26.477 197.286 28.3615 197.286 30.089C197.129 30.8742 197.129 31.1882 197.129 31.8164Z" fill="#E4EBFF"/>
<path d="M155.202 30.2462C155.202 30.8744 155.202 31.1884 155.202 31.6596C154.102 32.6018 152.846 32.4448 151.747 31.8166C150.647 31.3455 150.176 30.2462 150.176 28.9899C150.176 27.1054 150.176 25.0639 150.176 23.1794C150.176 22.7083 150.176 22.2371 150.176 21.766C148.606 21.609 147.193 21.609 145.622 21.766C145.465 25.0638 145.622 28.3617 145.465 31.8166C144.837 31.8166 144.366 31.8166 143.581 31.8166C143.581 31.5025 143.424 31.0314 143.424 30.7173C143.424 28.2047 143.424 25.692 143.424 23.1794C143.424 22.7083 143.424 22.2371 143.424 21.766C142.795 21.766 142.324 21.609 141.696 21.609C141.696 21.1379 141.696 20.6667 141.539 20.1956C142.167 20.0386 142.795 20.0386 143.424 20.0386C143.424 19.4104 143.424 18.6252 143.424 17.9971C143.581 16.2696 144.366 15.1704 145.936 14.5422C146.564 14.2281 147.35 14.2281 148.606 14.5422C148.606 15.0133 148.606 15.6414 148.606 16.2696C148.292 16.2696 147.978 16.1126 147.664 16.1126C146.407 15.9556 145.779 16.4267 145.622 17.526C145.465 18.3112 145.465 19.0964 145.308 20.0386C146.878 20.1956 148.449 20.0386 150.019 20.0386C150.019 19.0964 150.019 18.3111 150.019 17.2119C150.647 17.0548 151.276 16.7407 151.747 16.5837C152.218 17.683 151.747 18.7823 152.061 19.8816C153.003 19.8816 153.788 20.0386 154.887 20.0386C154.887 20.5097 154.887 20.9808 154.887 21.609C153.945 21.609 153.003 21.766 152.061 21.766C152.061 22.2371 151.904 22.5512 151.904 22.8653C151.904 24.5927 151.904 26.3202 151.904 28.2047C151.904 28.5187 151.904 28.8328 151.904 29.1469C152.061 30.0891 152.846 30.5602 153.788 30.4032C154.416 30.4032 154.73 30.4032 155.202 30.2462Z" fill="#E4EBFF"/>
<path d="M181.582 26.4769C180.169 26.4769 178.755 26.4769 177.499 26.4769C176.243 26.4769 174.829 26.4769 173.573 26.4769C173.259 28.6754 174.672 30.4029 176.714 30.5599C177.656 30.717 178.598 30.4029 179.383 30.0888C179.698 29.9318 180.169 29.7748 180.483 29.4607C180.797 29.9318 180.797 30.5599 180.64 31.1881C178.755 32.2874 176.871 32.6014 174.672 31.9733C172.631 31.3451 171.531 29.7747 171.217 27.7332C171.06 26.791 171.06 25.8487 171.217 24.9065C171.531 21.4516 175.143 18.939 178.284 20.1953C180.326 20.9805 181.111 22.5509 181.425 24.5924C181.739 25.0635 181.582 25.5346 181.582 26.4769ZM179.54 24.7495C179.226 22.5509 178.284 21.6087 176.714 21.4516C174.986 21.4516 173.73 22.5509 173.416 24.7495C175.457 24.7495 177.499 24.7495 179.54 24.7495Z" fill="#E4EBFF"/>
<path d="M140.596 25.849C140.596 27.2624 140.281 28.5187 139.496 29.775C137.769 32.6018 133.058 33.0729 130.545 30.7173C128.818 28.9898 128.346 26.7913 128.975 24.4357C129.446 21.923 130.859 20.3526 133.372 19.7245C136.67 18.9393 139.653 20.6667 140.281 23.4934C140.596 24.4357 140.596 25.2209 140.596 25.849ZM138.554 26.1631C138.554 25.692 138.554 25.3779 138.554 25.0638C138.397 23.9646 138.083 22.8653 137.141 22.0801C136.041 21.1378 134.628 20.9808 133.372 21.609C131.958 22.0801 131.33 23.1794 131.016 24.5927C130.859 25.2209 131.016 25.849 131.016 26.4772C131.016 27.5765 131.487 28.5187 132.115 29.3039C133.372 30.7173 136.827 31.0314 137.926 28.6758C138.397 27.8906 138.711 27.1054 138.554 26.1631Z" fill="#E4EBFF"/>
<path d="M118.138 26.0052C118.295 27.4186 117.981 28.6749 117.196 29.7742C116.097 31.3446 114.526 32.1298 112.642 32.2868C111.386 32.2868 110.129 32.1298 109.03 31.3446C107.46 30.2453 106.674 28.6749 106.517 26.9475C106.36 25.8482 106.674 24.7489 106.832 23.6496C107.46 21.4511 109.815 19.7236 112.014 19.7236C114.055 19.7236 115.94 20.1948 117.196 22.0792C117.981 23.1785 118.138 24.5919 118.138 26.0052ZM116.254 26.1623C116.254 25.22 116.097 24.4348 115.626 23.6496C115.155 22.2363 114.055 21.6081 112.642 21.6081C111.229 21.4511 110.129 21.9222 109.344 23.1785C108.402 24.7489 108.245 26.4763 108.873 28.2038C109.344 29.7742 110.758 30.7164 112.485 30.7164C114.212 30.7164 115.312 29.9312 115.783 28.2038C116.097 27.4186 116.097 26.7904 116.254 26.1623Z" fill="#E4EBFF"/>
<path d="M192.102 31.9727C191.474 31.9727 191.003 31.9727 190.375 31.9727C190.218 31.5016 190.218 31.1875 190.061 30.7164C189.904 30.8734 189.747 30.8734 189.59 31.0305C188.333 32.2868 186.92 32.4438 185.35 32.1297C183.779 31.8157 182.837 30.7164 182.68 29.146C182.523 27.7326 183.151 26.4763 184.407 25.6911C185.35 25.22 186.292 24.9059 187.234 24.7489C188.019 24.5918 188.962 24.5918 189.747 24.4348C190.061 23.6496 189.747 22.8644 189.433 22.3933C188.962 21.7651 188.176 21.451 187.548 21.6081C186.763 21.7651 185.978 21.9222 185.193 22.2362C184.879 22.3933 184.407 22.5503 184.093 22.8644C184.093 22.2362 184.093 21.7651 184.093 20.9799C185.978 19.7236 188.019 19.4095 190.061 20.1947C191.317 20.6658 191.945 21.6081 192.102 22.8644C192.259 25.6911 192.102 28.8319 192.102 31.9727ZM190.061 26.1622C188.648 26.1622 187.234 26.3193 185.978 26.7904C185.193 27.1045 184.879 27.7326 184.879 28.5178C184.879 29.303 185.193 29.9312 185.978 30.2453C187.234 30.8734 188.805 30.4023 189.59 29.146C190.218 28.3608 190.375 27.4186 190.061 26.1622Z" fill="#E4EBFF"/>
<path d="M161.324 17.2118C161.324 16.5837 161.324 16.1125 161.324 15.4844C162.581 15.1703 163.837 15.3274 165.093 15.3274C166.349 15.3274 167.606 15.3274 169.019 15.3274C170.275 15.3274 171.532 15.3274 172.788 15.3274C172.788 15.9555 172.788 16.5837 172.788 17.2118C171.218 17.2118 169.804 17.2118 168.234 17.2118C168.234 17.84 168.234 18.3111 168.234 18.7822C168.234 22.5512 168.234 26.4772 168.234 30.2462C168.234 30.7173 168.234 31.1884 168.234 31.8166C167.606 31.8166 166.978 31.8166 166.349 31.8166C166.349 31.3454 166.349 30.8743 166.349 30.4032C166.349 26.6342 166.349 22.7082 166.349 18.9393C166.349 18.4681 166.349 17.997 166.349 17.3689C164.465 17.2118 162.895 17.2118 161.324 17.2118Z" fill="#E4EBFF"/>
<path d="M119.71 31.5014C119.71 30.7162 119.71 30.2451 119.71 29.4599C120.181 29.617 120.652 29.931 120.966 30.0881C122.065 30.5592 123.165 30.7162 124.264 30.2451C124.892 30.0881 125.206 29.774 125.363 29.1458C125.52 28.5177 125.206 27.8895 124.578 27.4184C124.264 27.1043 123.793 26.9473 123.322 26.7902C122.694 26.4761 121.908 26.1621 121.28 25.848C120.024 25.2198 119.553 24.2776 119.553 23.0213C119.553 21.6079 120.338 20.8227 121.437 20.1945C122.694 19.5664 124.107 19.2523 125.677 19.7234C127.091 20.1945 127.248 20.3516 126.934 21.922C126.305 21.7649 125.52 21.4509 124.892 21.2938C124.107 21.1368 123.479 21.2938 122.694 21.4509C122.065 21.765 121.751 22.2361 121.751 22.8642C121.751 23.4924 122.065 23.9635 122.536 24.2776C122.851 24.4346 123.322 24.5917 123.636 24.7487C124.421 25.0628 125.049 25.3768 125.834 25.6909C127.091 26.3191 127.562 27.2614 127.562 28.6747C127.562 29.931 126.934 30.8733 125.677 31.3444C123.793 32.6007 121.908 32.4437 119.71 31.5014Z" fill="#E4EBFF"/>
<path d="M221.314 20.3518C221.314 20.98 221.314 21.4511 221.314 22.0793C220.686 21.9222 220.058 21.7652 219.43 21.4511C218.645 21.137 218.017 21.2941 217.231 21.6082C216.603 21.7652 216.132 22.2363 216.132 22.8645C215.975 23.4926 216.446 24.1208 217.074 24.4349C217.546 24.7489 218.174 24.906 218.645 25.2201C219.116 25.5341 219.744 25.6912 220.215 26.0053C221.314 26.6334 221.943 27.5756 221.786 28.832C221.786 29.9312 221.314 30.7165 220.372 31.3446C218.802 32.2869 215.975 32.758 213.934 31.3446C213.934 31.0305 213.934 30.5594 213.934 30.2454C213.934 30.0883 213.934 29.7742 214.091 29.6172C214.876 29.9312 215.504 30.2453 216.289 30.4024C217.074 30.7164 217.86 30.5594 218.802 30.4024C219.43 30.2453 219.901 29.7742 219.901 29.1461C220.058 28.5179 219.744 27.8897 219.116 27.5757C218.802 27.2616 218.331 27.1045 217.86 26.9475C217.074 26.6334 216.289 26.3193 215.504 25.8482C213.62 24.7489 213.462 22.0793 215.347 20.823C216.917 19.5666 218.959 19.4096 221.314 20.3518Z" fill="#E4EBFF"/>
<path d="M97.7234 20.3521C97.7234 21.1373 97.7234 21.6084 97.7234 22.2366C96.9382 21.9225 96.31 21.7654 95.5248 21.6084C93.3262 21.1373 91.1277 22.8647 90.8136 25.0633C90.8136 25.6914 90.8136 26.3196 90.8136 26.9478C90.6565 28.9893 93.0121 31.1878 95.6818 30.4026C96.31 30.2456 96.9382 29.9315 97.5663 29.7745C97.8804 30.4026 97.8804 30.8737 97.7234 31.5019C95.3678 32.6012 93.1692 32.7582 90.9706 31.1878C89.7143 30.2456 89.0862 28.8322 88.7721 27.2618C88.458 25.6914 88.7721 24.121 89.7143 22.5506C90.9706 20.5091 93.6403 19.2528 95.9959 19.7239C96.467 19.8809 97.0952 20.195 97.7234 20.3521Z" fill="#E4EBFF"/>
<path d="M101.807 31.9729C101.022 31.9729 100.551 31.9729 99.9227 31.9729C99.7656 30.7166 99.9227 29.4603 99.7656 28.0469C99.7656 26.6335 99.7656 25.3773 99.7656 23.9639C99.7656 22.7076 99.7656 21.4513 99.7656 20.0379C100.237 20.0379 100.394 19.8808 100.708 19.8808C101.022 19.8808 101.179 19.8808 101.65 19.8808C101.65 20.352 101.807 20.9801 101.807 21.6083C102.906 20.352 104.006 19.0956 106.047 19.8808C106.047 20.509 106.047 20.9801 106.047 21.6083C105.419 21.6083 104.948 21.4512 104.477 21.4512C103.692 21.4512 102.906 21.7653 102.592 22.5505C101.964 23.4927 101.807 24.435 101.807 25.5343C101.807 27.1047 101.807 28.518 101.807 30.0884C101.807 30.8736 101.807 31.3447 101.807 31.9729Z" fill="#E4EBFF"/>
<path d="M84.5312 20.0379C85.0024 20.0379 85.1594 19.8809 85.4735 19.8809C85.7876 19.8809 85.9446 19.8809 86.4157 19.8809C86.5728 21.1372 86.4158 22.3935 86.5728 23.6498C86.5728 25.0632 86.5728 26.3195 86.5728 27.7329C86.5728 28.9892 86.5728 30.2455 86.5728 31.6589C85.9446 31.6589 85.3165 31.6589 84.8453 31.6589C84.5313 30.7166 84.6883 29.7744 84.6883 28.8321C84.6883 27.8899 84.6883 26.7906 84.6883 25.8484C84.6883 24.9061 84.6883 23.9639 84.6883 22.8646C84.5313 22.0794 84.5312 21.1372 84.5312 20.0379Z" fill="#E4EBFF"/>
<path d="M85.4738 17.2114C84.5315 16.5832 84.2175 16.2691 84.3745 15.641C84.5315 15.0128 85.1597 14.6987 85.7879 14.6987C86.416 14.6987 86.8871 15.1699 86.8871 15.641C86.8871 16.5832 86.573 16.7403 85.4738 17.2114Z" fill="#E4EBFF"/>
</svg>
