<svg width="707" height="702" viewBox="0 0 707 702" fill="none" xmlns="http://www.w3.org/2000/svg">
<path d="M225.039 408.856V294.341H164.526L58.0536 187.485L22.8181 222.338L113.971 313.49V390.089L23.5841 480.476L58.4366 515.328L165.292 408.856H225.039Z" fill="white"/>
<path d="M592.33 312.724L682.334 222.338L647.482 187.485L540.626 294.341H480.879V408.856H541.392L648.247 515.328L683.1 480.476L592.33 389.323V312.724Z" fill="white"/>
<path d="M239.594 269.064L338.789 211.997L308.533 159.527L347.598 13.9896L299.724 0.967773L266.403 125.058L199.762 163.74L76.4384 130.42L63.7996 178.294L209.72 217.742L239.594 269.064Z" fill="white"/>
<path d="M466.709 433.751L367.513 490.817L397.387 543.288L358.322 689.208L406.196 701.847L439.516 577.757L506.157 539.075L629.481 572.395L642.503 524.521L496.582 485.455L466.709 433.751Z" fill="white"/>
<path d="M367.513 211.997L466.708 269.063L496.582 216.976L642.502 177.911L629.864 130.036L505.391 163.357L439.133 125.057L405.812 1.7334L357.938 14.3722L397.386 160.293L367.513 211.997Z" fill="white"/>
<path d="M338.789 490.817L239.593 433.751L209.337 485.838L63.4163 524.904L76.0551 572.778L200.528 539.458L266.786 577.757L300.107 701.464L347.981 688.442L308.915 542.521L338.789 490.817Z" fill="white"/>
<path d="M0.222168 351.408C0.222168 328.811 19.7549 311.576 42.7345 311.576C65.7141 311.576 84.4808 328.811 84.4808 351.408C84.4808 373.238 66.0971 391.239 42.7345 391.239C19.3719 391.239 0.222168 373.238 0.222168 351.408Z" fill="white"/>
<path d="M622.204 351.408C622.204 328.811 641.737 311.576 664.716 311.576C687.696 311.576 706.463 328.811 706.463 351.408C706.463 373.238 688.079 391.239 664.716 391.239C641.354 391.239 622.204 373.238 622.204 351.408Z" fill="white"/>
<path d="M176.782 657.419C157.249 645.929 151.887 620.651 163.377 600.353C174.867 580.054 198.995 572.777 218.911 584.267C237.678 594.991 244.189 620.268 232.699 640.567C221.209 660.483 195.548 668.143 176.782 657.419Z" fill="white"/>
<path d="M487.774 118.547C468.241 107.057 462.88 81.7791 474.369 61.4804C485.859 41.1818 509.988 33.9049 529.903 45.3947C548.67 56.1185 555.181 81.3961 543.691 101.695C532.201 121.993 506.541 129.653 487.774 118.547Z" fill="white"/>
<path d="M530.285 657.42C510.753 668.91 485.858 660.484 474.368 640.568C462.878 620.653 468.24 595.758 488.156 584.268C506.923 573.544 531.817 580.438 543.69 600.354C555.18 620.27 549.052 646.313 530.285 657.42Z" fill="white"/>
<path d="M219.295 118.547C199.762 130.036 174.867 121.611 163.378 101.695C151.888 81.7791 157.25 56.8845 177.165 45.3947C195.932 34.6709 220.827 41.5648 232.699 61.4804C244.572 81.3961 238.061 107.823 219.295 118.547Z" fill="white"/>
</svg>
