<svg width="222" height="30" viewBox="0 0 222 30" fill="none" xmlns="http://www.w3.org/2000/svg">
<path d="M0.359375 14.7996C1.952 13.207 3.54462 11.5765 5.13724 9.98384C7.90537 7.21571 10.7114 4.44759 13.5175 1.64154C13.745 1.41402 13.9725 1.22442 14.2759 0.958984C14.5413 1.14858 14.7688 1.33818 14.9584 1.52778C19.1296 5.66101 23.2628 9.79425 27.434 13.9275C27.5477 14.0412 27.6615 14.155 27.7752 14.2688C28.4578 15.103 28.4578 15.5201 27.6994 16.2785C24.8554 19.0466 22.0873 21.8527 19.3192 24.6587C17.9541 26.0617 16.551 27.4269 15.148 28.792C14.9205 29.0195 14.6551 29.247 14.3517 29.5503C14.0483 29.2849 13.8208 29.0574 13.5554 28.8299C9.38423 24.6966 5.21308 20.5255 1.00401 16.3923C0.85233 16.1268 0.586892 15.9372 0.359375 15.7476C0.359375 15.4063 0.359375 15.103 0.359375 14.7996ZM10.3322 15.2926C11.6594 16.5819 12.9866 17.8711 14.3138 19.1983C14.9963 18.7053 17.9161 15.7855 18.2953 15.1788C17.5749 14.1929 14.8447 11.6144 14.2379 11.2731C12.9487 12.6003 11.6215 13.9275 10.3322 15.2926Z" fill="#E4EBFF"/>
<path d="M221.81 19.1223C219.497 19.1223 217.221 19.1602 214.908 19.1602C213.505 19.1602 212.14 19.1602 210.737 19.1602C210.434 19.1602 210.13 19.1602 209.713 19.1602C209.789 20.222 210.168 21.0562 210.775 21.7767C211.799 23.028 213.24 23.483 214.795 23.5968C216.615 23.7106 218.397 23.521 220.103 22.9901C220.293 22.9142 220.52 22.9143 220.824 22.8384C220.938 23.7106 220.938 24.5069 220.824 25.3032C220.786 25.4928 220.445 25.7203 220.217 25.7961C219.459 26.0237 218.7 26.2512 217.942 26.3649C215.818 26.6304 213.695 26.6683 211.609 25.9099C209.22 25.0377 207.59 23.4072 206.983 20.9424C206.301 18.2881 206.301 15.5958 207.59 13.0552C208.652 10.9317 210.434 9.68032 212.785 9.22528C214.377 8.92192 215.932 8.99776 217.449 9.52864C219.497 10.2491 220.634 11.8038 221.279 13.7756C221.506 14.4582 221.658 15.1407 221.81 15.8233C221.81 16.9988 221.81 18.0605 221.81 19.1223ZM218.7 16.4679C218.624 15.975 218.624 15.5958 218.511 15.2545C218.132 13.6998 217.335 12.4864 215.667 12.1072C215.136 11.9934 214.529 11.9934 213.96 11.9934C211.496 11.9934 210.017 13.7756 209.675 16.0508C209.638 16.2025 209.751 16.3162 209.789 16.4679C212.785 16.4679 215.705 16.4679 218.7 16.4679Z" fill="#E4EBFF"/>
<path d="M162.313 13.6241C161.062 17.6815 159.583 21.5872 158.142 25.493C157.877 26.2893 157.839 26.2513 157.005 26.2893C156.36 26.2893 155.677 26.2893 155.033 26.2893C154.198 26.2893 154.161 26.2893 153.895 25.493C152.871 22.8007 151.885 20.0705 150.862 17.3782C150.027 15.103 149.193 12.8657 148.321 10.5906C148.207 10.2872 148.131 10.0218 148.018 9.64257C148.245 9.56673 148.397 9.49089 148.548 9.49089C149.231 9.49089 149.951 9.49089 150.634 9.49089C151.127 9.45297 151.355 9.68049 151.506 10.1355C151.772 11.0835 152.113 11.9936 152.454 12.9037C153.516 15.9751 154.578 19.0845 155.639 22.156C155.753 22.4594 155.867 22.7248 156.132 23.0282C157.687 18.5537 159.242 14.0792 160.796 9.56673C161.782 9.56673 162.655 9.56673 163.716 9.56673C165.271 14.0412 166.864 18.5537 168.456 23.2178C168.57 22.9523 168.684 22.8007 168.76 22.6111C170.125 18.6295 171.49 14.648 172.855 10.6664C172.893 10.5906 172.893 10.4768 172.931 10.401C173.234 9.49089 173.234 9.49089 174.182 9.49089C174.94 9.49089 175.699 9.49089 176.571 9.49089C176.306 10.2493 176.116 10.856 175.888 11.4627C174.182 16.1268 172.438 20.753 170.693 25.4171C170.352 26.2893 170.39 26.2893 169.404 26.2893C168.684 26.2893 167.963 26.2893 167.243 26.2893C166.826 26.2893 166.56 26.1755 166.409 25.7205C165.157 22.0044 163.906 18.2882 162.655 14.5721C162.541 14.2688 162.427 13.9275 162.313 13.6241Z" fill="#E4EBFF"/>
<path d="M104.674 8.54325C103.423 8.12613 102.323 7.70902 101.148 7.40566C99.4035 6.98854 97.5833 6.87479 95.8011 7.25398C95.4219 7.32982 95.0427 7.51942 94.6635 7.6711C93.033 8.42949 92.8055 11.008 94.5498 11.9939C95.7253 12.6765 97.0145 13.0557 98.3417 13.397C99.8206 13.7761 101.337 14.1933 102.702 14.9137C104.181 15.71 105.357 16.7718 105.66 18.4782C106.077 20.8671 105.888 23.1423 103.878 24.8487C102.778 25.7967 101.413 26.2517 99.9723 26.4034C97.5075 26.6309 95.0427 26.555 92.6538 25.8725C91.9333 25.645 91.2129 25.3416 90.5303 25.0383C90.3407 24.9624 90.0753 24.697 90.0373 24.5074C89.9615 23.5973 89.9615 22.6493 90.0373 21.6255C90.3786 21.7393 90.6441 21.8151 90.8716 21.8909C93.5259 22.9906 96.2941 23.4836 99.176 23.3319C99.631 23.294 100.124 23.2181 100.579 23.0664C101.83 22.6873 102.551 21.8151 102.665 20.5258C102.778 19.3124 102.285 18.3265 101.224 17.7956C100.238 17.3027 99.176 16.9614 98.1521 16.6201C96.787 16.1651 95.384 15.7859 94.0189 15.2929C93.3364 15.0654 92.7296 14.6483 92.1608 14.2312C90.8716 13.2453 90.2649 11.9181 90.189 10.3255C90.0753 8.35365 90.682 6.68519 92.2746 5.43384C93.3743 4.56169 94.6635 4.14458 96.0286 3.9929C98.4555 3.65162 100.807 3.87914 103.082 4.71337C103.233 4.75129 103.385 4.82713 103.537 4.86505C104.788 5.358 104.826 5.358 104.788 6.68519C104.788 7.36774 104.902 7.97445 104.674 8.54325Z" fill="#E4EBFF"/>
<path d="M189.579 12.0319C189.579 11.1598 189.579 10.4014 189.579 9.56717C190.565 9.56717 191.437 9.56717 192.46 9.56717C192.498 9.87053 192.574 10.136 192.574 10.4393C192.574 15.4068 192.574 20.3743 192.574 25.3038C192.574 26.2139 192.536 26.2518 191.626 26.2897C190.982 26.2897 190.299 26.2897 189.541 26.2897C189.541 25.7209 189.541 25.3038 189.541 24.8867C189.541 24.4696 189.541 24.0904 189.541 23.5216C188.782 24.6971 187.91 25.5692 186.735 26.0243C184.27 26.9343 181.881 26.8206 179.833 25.0763C179.189 24.5454 178.696 23.787 178.316 23.0665C177.634 21.7773 177.293 20.3743 177.255 18.8954C177.217 17.4924 177.141 16.0514 177.634 14.6863C177.899 13.89 178.203 13.0937 178.582 12.3353C180.402 9.0363 184.573 8.31583 187.379 9.87053C187.796 10.098 188.213 10.4393 188.555 10.7806C188.896 11.1598 189.199 11.5769 189.579 12.0319ZM189.617 18.0232C189.503 17.1132 189.465 16.3927 189.351 15.6722C189.048 13.6625 187.531 12.1457 185.597 12.0319C183.17 11.8423 181.502 12.7145 180.743 14.7622C179.985 16.8477 180.061 19.0091 180.743 21.1326C181.16 22.3461 182.033 23.2182 183.322 23.5595C183.853 23.7112 184.459 23.6733 185.028 23.6733C187.19 23.7491 188.782 22.1565 189.161 20.6018C189.389 19.6917 189.503 18.7437 189.617 18.0232Z" fill="#E4EBFF"/>
<path d="M78.17 23.7101C77.5633 24.3169 77.1461 24.8477 76.6532 25.2648C74.1126 27.3125 68.9555 27.2367 66.9458 23.1413C65.922 21.0179 65.6186 18.7806 65.884 16.4675C66.0357 15.1024 66.4149 13.851 67.0216 12.6376C68.6522 9.45238 72.4441 8.46647 75.3639 9.60406C76.274 9.98325 77.0703 10.552 77.6391 11.3863C77.7529 11.538 77.8666 11.6896 78.0941 11.993C78.0941 11.0829 78.0941 10.4004 78.0941 9.60406C79.118 9.45238 80.028 9.52822 80.9002 9.52822C80.976 9.60406 81.0139 9.64198 81.0139 9.64198C81.0519 9.6799 81.0519 9.6799 81.0898 9.71782C81.1277 9.90741 81.1656 10.097 81.1656 10.2866C81.1656 15.4816 81.1656 20.7145 81.1656 25.9095C81.1656 25.9853 81.1277 26.0991 81.0519 26.2508C80.1418 26.3645 79.2317 26.2887 78.17 26.2887C78.17 25.4165 78.17 24.6581 78.17 23.7101ZM78.17 17.8705C78.1321 17.8705 78.0941 17.8705 78.0562 17.8705C78.0562 17.3776 78.0941 16.8467 78.0562 16.3537C77.9045 14.6853 77.2978 13.2064 75.6673 12.448C73.6196 11.4621 70.131 11.8792 69.183 15.1782C68.6522 17.1121 68.6901 19.0081 69.2589 20.9041C69.6381 22.1175 70.4344 23.0655 71.6857 23.4447C72.2924 23.6343 72.975 23.6343 73.6575 23.6343C75.5914 23.6722 77.2978 22.383 77.7908 20.4111C78.0562 19.6148 78.0562 18.7048 78.17 17.8705Z" fill="#E4EBFF"/>
<path d="M124.28 17.8704C124.28 19.8801 123.787 21.7382 122.649 23.4066C121.36 25.3026 119.502 26.3264 117.189 26.516C116.127 26.6298 115.066 26.5919 114.004 26.2885C110.932 25.4543 109.188 23.3308 108.505 20.3351C108.013 18.2496 108.126 16.164 108.847 14.1543C109.719 11.7653 111.387 10.1348 113.89 9.49015C116.62 8.76968 119.199 9.14887 121.436 11.0069C122.877 12.2204 123.635 13.813 123.977 15.5952C124.128 16.3157 124.166 17.112 124.28 17.8704ZM121.095 17.8704C121.095 17.4153 121.171 16.9224 121.095 16.4674C120.753 14.1922 119.578 12.4858 117.227 12.0687C115.179 11.7274 113.056 12.2583 112.07 14.3059C110.781 16.8465 110.819 19.4251 112.411 21.8899C113.018 22.8378 113.928 23.4066 115.028 23.5962C115.559 23.71 116.089 23.6721 116.62 23.6721C118.365 23.6721 119.578 22.8378 120.412 21.3211C121.019 20.2593 121.209 19.0838 121.095 17.8704Z" fill="#E4EBFF"/>
<path d="M131.56 26.2135C130.461 26.2135 129.55 26.2135 128.565 26.2135C128.527 25.0001 128.565 23.8625 128.527 22.687C128.527 21.5494 128.527 20.4118 128.527 19.3121C128.527 18.1366 128.527 16.999 128.527 15.8235C128.527 14.6859 128.527 13.5863 128.527 12.3349C127.617 12.3349 126.82 12.3349 125.986 12.3349C125.759 11.349 125.91 10.5148 125.872 9.52887C126.744 9.49095 127.579 9.45303 128.527 9.41511C128.527 8.8084 128.489 8.23961 128.527 7.70873C128.565 7.0641 128.64 6.38155 128.83 5.77483C129.399 3.80302 130.878 2.81711 132.849 2.55167C133.835 2.43791 134.859 2.36207 135.921 2.81711C135.997 3.68926 135.997 4.56141 135.921 5.39564C135.201 5.39564 134.594 5.39564 133.949 5.39564C132.432 5.43356 131.598 6.22987 131.598 7.74665C131.598 8.27753 131.598 8.8084 131.598 9.45303C133.001 9.49095 134.328 9.49095 135.731 9.52887C135.731 10.4769 135.731 11.3111 135.731 12.3349C134.366 12.3728 133.039 12.3728 131.598 12.4108C131.56 17.0369 131.56 21.5873 131.56 26.2135Z" fill="#E4EBFF"/>
<path d="M139.904 12.3351C138.994 12.3351 138.197 12.3351 137.363 12.3351C137.135 11.3492 137.287 10.5149 137.249 9.52903C138.121 9.52903 138.918 9.52903 139.79 9.52903C140.055 8.31561 139.79 7.21594 139.979 6.00251C140.89 5.85084 141.838 5.92667 142.861 5.92667C143.089 7.06426 142.861 8.20185 143.013 9.41528C144.416 9.56695 145.819 9.37736 147.26 9.52903C147.26 10.4391 147.26 11.3113 147.26 12.2972C145.857 12.373 144.492 12.2972 143.051 12.373C143.013 12.6384 142.975 12.866 142.975 13.1314C142.975 15.7478 142.975 18.3264 142.975 20.9428C142.975 22.4596 143.809 23.2559 145.364 23.2559C145.971 23.2559 146.615 23.1801 147.336 23.1422C147.336 24.0143 147.374 24.8485 147.298 25.6828C147.298 25.8345 147.032 26.062 146.881 26.0999C144.757 26.517 142.786 26.3274 141.193 24.6969C140.245 23.7489 139.942 22.5355 139.942 21.2462C139.904 18.6677 139.942 16.0891 139.942 13.5106C139.904 13.1314 139.904 12.7901 139.904 12.3351Z" fill="#E4EBFF"/>
<path d="M35.207 22.8762C36.3067 23.0279 37.2926 23.1796 38.2406 23.2554C40.5537 23.445 41.6913 22.0041 41.6913 19.9185C41.6534 15.444 41.6913 10.9316 41.6913 6.45707C41.6913 5.77451 41.6913 5.09196 41.6913 4.33357C42.753 4.18189 43.7769 4.25773 44.8386 4.25773C44.8765 4.56109 44.9524 4.7886 44.9524 5.01612C44.9524 10.0594 44.9903 15.1027 44.9524 20.146C44.9524 21.8145 44.4973 23.4071 43.2839 24.7343C42.4876 25.6065 41.4638 26.1373 40.3262 26.2511C38.8852 26.4028 37.4443 26.4407 36.0033 25.9856C35.2829 25.7581 35.2829 25.7581 35.245 24.9997C35.207 24.3172 35.207 23.5967 35.207 22.8762Z" fill="#E4EBFF"/>
<path d="M58.9816 26.251C57.8819 26.251 56.9719 26.251 56.0997 26.251C55.9101 25.5305 55.8343 10.9315 56.0239 9.68011C56.6685 9.45259 57.9578 9.41467 58.9437 9.64219C58.9437 10.3247 58.9437 11.0452 58.9437 11.9174C59.3608 11.4623 59.6262 11.159 59.9296 10.8556C60.8397 9.90763 61.9393 9.37675 63.2665 9.30091C63.3044 9.30091 63.3424 9.30091 63.3424 9.30091C64.8591 9.14924 64.8591 9.14924 64.8591 10.7039C64.8591 11.159 64.8591 11.5761 64.8591 12.1449C64.48 12.1449 64.1387 12.1828 63.7974 12.1828C63.1528 12.2207 62.4702 12.2586 61.8256 12.3724C60.0813 12.6758 58.9816 14.0409 58.9816 15.9368C58.9437 19.0083 58.9816 22.0798 58.9816 25.1513C58.9816 25.4926 58.9816 25.8338 58.9816 26.251Z" fill="#E4EBFF"/>
<path d="M205.656 12.1827C204.859 12.1827 204.215 12.1448 203.608 12.1827C203.001 12.2586 202.432 12.3723 201.864 12.5619C200.65 13.017 200.006 13.927 199.816 15.1784C199.74 15.8609 199.664 16.5435 199.664 17.226C199.664 19.8804 199.664 22.4969 199.664 25.1512C199.664 25.4925 199.664 25.8338 199.664 26.213C198.64 26.213 197.768 26.213 196.82 26.213C196.82 20.6388 196.82 15.1405 196.82 9.52836C197.73 9.45253 198.64 9.45253 199.626 9.52836C199.626 10.3247 199.626 11.121 199.626 11.8794C200.309 11.2347 200.916 10.5901 201.636 10.0592C202.622 9.30085 203.873 9.26293 205.049 9.14917C205.39 9.11125 205.694 9.26293 205.694 9.68004C205.656 10.5143 205.656 11.2727 205.656 12.1827Z" fill="#E4EBFF"/>
<path d="M51.7394 9.52889C51.7394 15.141 51.7394 20.6014 51.7394 26.2135C50.7535 26.3652 49.8055 26.2893 48.8575 26.2514C48.6679 25.493 48.5921 10.7802 48.7817 9.56681C49.7297 9.41514 50.6777 9.49097 51.7394 9.52889Z" fill="#E4EBFF"/>
<path d="M52.3469 5.16793C52.4228 6.60887 51.4369 7.29143 50.2614 7.25351C49.0479 7.25351 48.1758 6.38136 48.1758 5.16793C48.1758 3.9545 49.0859 3.04443 50.3372 3.04443C51.5885 3.12027 52.3469 3.87866 52.3469 5.16793Z" fill="#E4EBFF"/>
</svg>
